<svg xmlns="http://www.w3.org/2000/svg" viewBox="0 0 256 256" width="256" height="256">
  <defs>
    <style>
      .icon-teal { fill: #5BA89E; }
      .icon-pink { fill: #FF6B89; }
      .icon-white { fill: #FFFFFF; }
    </style>
  </defs>

  <!-- Background -->
  <rect width="256" height="256" fill="transparent"/>

  <!-- Outer Teal Ring -->
  <path class="icon-teal" d="M 190 40 Q 240 50 240 100 Q 245 150 225 190 Q 210 215 175 225 Q 150 230 128 230 Q 90 230 65 205 Q 40 180 45 130 Q 48 100 75 70 Q 100 40 150 35 Q 170 33 190 40 Z"/>

  <!-- White border/separator -->
  <path class="icon-white" d="M 180 55 Q 220 65 220 110 Q 222 145 205 180 Q 190 200 155 207 Q 130 212 105 210 Q 80 207 65 190 Q 55 180 55 160 Q 52 125 65 90 Q 78 60 110 52 Q 140 47 170 55 Q 175 55 180 55 Z"/>

  <!-- Main Pink center -->
  <path class="icon-pink" d="M 175 70 Q 210 80 215 125 Q 217 160 200 185 Q 185 205 155 207 Q 130 210 105 202 Q 80 197 70 180 Q 62 165 65 140 Q 68 110 80 85 Q 95 65 125 60 Q 150 57 175 70 Z"/>

  <!-- Small Pink blob bottom-left -->
  <path class="icon-pink" d="M 60 175 Q 45 165 35 180 Q 28 192 35 205 Q 45 212 60 208 Q 70 203 68 190 Q 65 180 60 175 Z"/>

  <!-- White separator -->
  <path class="icon-white" d="M 95 145 Q 100 155 110 160 Q 120 165 130 160 Q 140 155 142 145" stroke="#FFFFFF" stroke-width="4" fill="none" stroke-linecap="round"/>
</svg>