<?xml version="1.0" encoding="utf-8"?>
<!-- Generator: Adobe Illustrator 28.2.0, SVG Export Plug-In . SVG Version: 6.00 Build 0)  -->
<svg version="1.1" id="Layer_1" xmlns="http://www.w3.org/2000/svg" xmlns:xlink="http://www.w3.org/1999/xlink" x="0px" y="0px"
	 viewBox="0 0 1000 1000" style="enable-background:new 0 0 1000 1000;" xml:space="preserve">
<style type="text/css">
	.st0{fill:#FFD979;}
	.st1{fill:#93E3FF;}
	.st2{fill:#3988FD;}
	.st3{fill:#FF8C83;}
	.st4{fill:#E392FD;}
</style>
<path class="st0" d="M349.41,323.94c13.7,14.81,32,22.61,50.53,23.46c35.43,1.59,69.14,15.6,94.22,40.71l6.61,6.61
	c11.8,11.8,20.8,25.56,27.15,40.63l-39.61-112.86c-1.48-3.38-2.75-6.78-3.94-10.24c-1.65-4.37-2.92-9.28-4-14.21
	c0-0.06-0.03-0.11,0-0.14c-1.65-7.23-2.75-14.64-3.21-22.16c-0.14-1.7-0.23-3.38-0.34-4.91c0-0.68-0.06-1.36-0.14-2.04
	c-0.06-0.62-0.11-1.25-0.11-1.82c-1.53-16.45-8.62-32.48-21.25-45.11c-29.53-29.53-77.93-28.71-106.45,2.53
	C323.51,252.33,323.7,296.25,349.41,323.94z"/>
<path class="st1" d="M560.51,535.1c29.53,29.53,77.96,28.68,106.45-2.53c25.42-27.94,25.22-71.86-0.51-99.52
	c-13.7-14.81-32-22.61-50.53-23.46c-35.43-1.59-69.11-15.66-94.19-40.74l-6.58-6.58c-11.55-11.55-20.51-25.08-26.84-39.78
	l39.61,112.86c6.75,15.89,10.41,33.17,11.12,50.81C539.8,503.95,546.92,521.48,560.51,535.1z"/>
<path class="st2" d="M621.28,333.36c3.35,0.45,6.64,0.6,9.84,0.48c25.85-1.02,50.78,9.87,69.05,28.2l0.74,0.74
	c15.83,15.86,25.19,36.77,27.72,59.04c0.03,0.28,0.06,0.54,0.11,0.82c2.27,16.97,15.66,30.9,32.54,33.59
	c26.81,4.28,49.62-18.58,45.36-45.45c-2.7-16.91-16.6-30.36-33.53-32.63c-0.28-0.03-0.54-0.06-0.82-0.11
	c-22.24-2.53-43.12-11.92-58.93-27.77l-0.74-0.74c-18.3-18.33-29.16-43.29-28.14-69.2c0.11-3.23-0.03-6.53-0.48-9.87
	c-3.32-24.65-23.24-44.48-47.89-47.58c-36.34-4.57-66.9,26.04-62.33,62.44C576.88,310.09,596.66,330.04,621.28,333.36z"/>
<path class="st0" d="M381.3,686c-3.35-0.45-6.64-0.6-9.84-0.48c-25.85,1.02-50.78-9.87-69.05-28.2l-0.74-0.74
	c-15.83-15.86-25.19-36.77-27.72-59.04c-0.03-0.28-0.06-0.54-0.11-0.82c-2.27-16.97-15.66-30.9-32.57-33.59
	c-26.81-4.28-49.62,18.58-45.36,45.45c2.7,16.91,16.6,30.36,33.53,32.63c0.28,0.03,0.54,0.06,0.82,0.11
	c22.24,2.53,43.12,11.92,58.93,27.77l0.74,0.74c18.3,18.33,29.16,43.29,28.14,69.2c-0.11,3.23,0.03,6.53,0.48,9.87
	c3.32,24.65,23.24,44.48,47.89,47.58c36.34,4.57,66.9-26.04,62.33-62.44C425.67,709.27,405.89,689.32,381.3,686z"/>
<circle class="st3" cx="754.82" cy="597.32" r="49.68"/>
<path class="st4" d="M647.92,669.49c-13.7-14.81-32-22.61-50.53-23.46c-35.43-1.59-69.14-15.6-94.22-40.71l-6.61-6.61
	c-11.8-11.8-20.8-25.56-27.15-40.63l39.61,112.86c1.48,3.38,2.75,6.78,3.94,10.24c1.65,4.37,2.92,9.28,4,14.21
	c0,0.06,0.03,0.11,0,0.14c1.65,7.23,2.75,14.64,3.21,22.16c0.14,1.7,0.23,3.38,0.34,4.91c0,0.68,0.06,1.36,0.14,2.04
	c0.06,0.62,0.11,1.25,0.11,1.82c1.53,16.45,8.62,32.48,21.25,45.11c29.53,29.53,77.93,28.71,106.45-2.53
	C673.82,741.1,673.63,697.18,647.92,669.49z"/>
<path class="st2" d="M436.82,458.33c-29.53-29.53-77.96-28.68-106.45,2.53c-25.42,27.94-25.22,71.86,0.51,99.52
	c13.7,14.81,32,22.61,50.53,23.46c35.43,1.59,69.11,15.66,94.19,40.74l6.58,6.58c11.55,11.55,20.51,25.08,26.84,39.78l-39.61-112.86
	c-6.75-15.89-10.38-33.17-11.12-50.81C457.56,489.51,450.41,471.95,436.82,458.33z"/>
<ellipse class="st3" cx="242.88" cy="396.28" rx="50.05" ry="50.13"/>
</svg>
