<svg xmlns="http://www.w3.org/2000/svg" viewBox="0 0 500 500" width="500" height="500">
  <!-- Outer Teal Ring -->
  <path d="M250 50 C380 50 480 150 480 280 C480 350 450 410 400 450 C380 470 350 480 320 480 C280 480 250 460 230 430 L230 430 C200 470 150 490 100 480 C50 470 20 430 20 380 C20 350 30 320 50 300 C100 250 140 200 180 150 C210 100 240 50 250 50 Z" fill="#5A9E9C" opacity="0.9"/>

  <!-- White separator/border -->
  <path d="M250 100 C350 110 430 180 440 270 C445 310 430 350 400 380 C370 410 330 420 290 410 C260 400 240 380 230 350 L230 350 C220 380 190 400 150 410 C100 420 60 400 40 360 C20 320 20 270 40 230 C70 180 120 140 170 120 C200 110 225 100 250 100 Z" fill="white" opacity="0.15"/>

  <!-- Inner Pink/Red shape -->
  <path d="M250 130 C330 140 390 200 400 280 C405 320 390 360 360 390 C330 420 280 430 240 415 L240 415 C210 430 160 440 120 420 C80 400 60 360 55 310 C50 260 70 210 110 180 C140 160 180 140 220 135 C230 132 240 130 250 130 Z" fill="#FF5A7E"/>

  <!-- Highlight/shine effect -->
  <ellipse cx="200" cy="200" rx="40" ry="50" fill="white" opacity="0.2"/>
</svg>