<?xml version="1.0" encoding="utf-8"?>
<!-- Generator: Adobe Illustrator 28.2.0, SVG Export Plug-In . SVG Version: 6.00 Build 0)  -->
<svg version="1.1" id="Layer_1" xmlns="http://www.w3.org/2000/svg" xmlns:xlink="http://www.w3.org/1999/xlink" x="0px" y="0px"
	 viewBox="0 0 1600 387.21" style="enable-background:new 0 0 1600 387.21;" xml:space="preserve">
<style type="text/css">
	.st0{fill:#0B0251;}
	.st1{fill:#FFD979;}
	.st2{fill:#93E3FF;}
	.st3{fill:#3988FD;}
	.st4{fill:#FF8C83;}
	.st5{fill:#E392FD;}
</style>
<g>
	<polygon class="st0" points="461.22,140.11 597.03,140.46 459.9,250.02 458.59,250.02 458.59,285.45 648.9,285.62 648.9,250.53 
		513.27,250.37 650.88,140.62 650.88,105.37 461.22,105.19 	"/>
	<polygon class="st0" points="777.96,176.89 719.14,105.36 673.55,105.36 756.99,205.82 756.99,285.62 800.27,285.62 800.27,205.65 
		883.85,105.36 838.26,105.36 	"/>
	<path class="st0" d="M1288.72,116.78c-16.22-7.7-34.25-11.64-54.42-11.64c-19.34,0-37.22,3.94-53.61,11.8
		c-16.22,7.86-29.17,18.53-38.86,32.3c-9.5,13.77-14.25,29.17-14.25,46.22c0,16.72,4.75,31.97,14.25,45.74
		c9.67,13.61,22.61,24.42,39.02,32.13c16.39,7.86,34.25,11.8,53.77,11.8c20,0,38.19-3.94,54.25-11.8
		c16.06-7.7,28.69-18.53,37.7-31.97c9.17-13.61,13.77-29.02,13.77-45.89c0-17.22-4.59-32.61-13.77-46.39
		C1317.56,135.31,1304.95,124.5,1288.72,116.78z M1290.69,226.61c-6.22,8.69-14.25,15.25-24.25,19.83
		c-10.17,4.42-20.83,6.72-32.13,6.72c-11.64,0-22.61-2.3-32.61-6.89c-10-4.59-18.19-11.14-24.25-20
		c-6.06-8.69-9.19-19.19-9.19-31.31c0-11.97,2.95-22.3,8.86-30.81c5.89-8.69,13.77-15.41,23.77-20c10-4.59,20.98-6.89,33.11-6.89
		c11.14,0,21.97,2.3,31.97,6.89c10.17,4.59,18.36,11.31,24.59,20.16c6.22,8.86,9.5,19.17,9.5,31.14
		C1300.03,207.44,1296.92,217.94,1290.69,226.61z"/>
	<polygon class="st0" points="1541.94,105.36 1541.94,228.12 1416.55,105.36 1377.06,105.36 1377.06,285.27 1416.55,285.27 
		1416.55,155.42 1541.94,285.27 1581.43,285.27 1581.43,105.36 	"/>
	<path class="st0" d="M1100.09,159.01c0-29.63-24.1-53.74-53.74-53.74h-137v38.26h137c8.53,0,15.48,6.94,15.48,15.46
		c0,8.53-6.94,15.48-15.48,15.48h-137v22.81h-0.08v87.98h38.26v-72.51h43.94l56.45,72.48h48.51l-56.45-72.48h6.37
		C1075.98,212.75,1100.09,188.65,1100.09,159.01z"/>
</g>
<path class="st1" d="M110.01,93.44c8,8.64,18.67,13.19,29.49,13.69c20.68,0.93,40.35,9.11,54.98,23.76l3.86,3.86
	c6.89,6.89,12.14,14.92,15.84,23.71L191.07,92.6c-0.86-1.97-1.61-3.96-2.3-5.98c-0.96-2.55-1.71-5.41-2.33-8.29
	c0-0.03-0.02-0.07,0-0.08c-0.96-4.22-1.61-8.54-1.87-12.93c-0.08-0.99-0.13-1.97-0.2-2.86c0-0.4-0.03-0.79-0.08-1.19
	c-0.03-0.36-0.07-0.73-0.07-1.06c-0.89-9.6-5.03-18.96-12.4-26.32c-17.23-17.23-45.48-16.75-62.12,1.47
	C94.9,51.65,95.01,77.28,110.01,93.44z"/>
<path class="st2" d="M233.2,216.66c17.23,17.23,45.49,16.74,62.12-1.47c14.83-16.31,14.72-41.94-0.3-58.08
	c-8-8.64-18.67-13.19-29.49-13.69c-20.68-0.93-40.33-9.14-54.96-23.77l-3.84-3.84c-6.74-6.74-11.97-14.64-15.66-23.21l23.11,65.86
	c3.94,9.27,6.08,19.35,6.49,29.65C221.12,198.49,225.27,208.72,233.2,216.66z"/>
<path class="st3" d="M268.66,98.94c1.95,0.26,3.87,0.35,5.74,0.28c15.08-0.6,29.63,5.76,40.3,16.46l0.43,0.43
	c9.24,9.25,14.7,21.46,16.17,34.45c0.02,0.17,0.03,0.31,0.07,0.48c1.32,9.9,9.14,18.03,18.99,19.6
	c15.65,2.5,28.96-10.84,26.47-26.52c-1.57-9.87-9.68-17.71-19.57-19.04c-0.17-0.02-0.31-0.03-0.48-0.07
	c-12.98-1.47-25.16-6.95-34.39-16.21l-0.43-0.43c-10.68-10.69-17.02-25.26-16.42-40.38c0.07-1.89-0.02-3.81-0.28-5.76
	c-1.94-14.39-13.56-25.96-27.95-27.76c-21.21-2.67-39.04,15.2-36.37,36.44C242.75,85.36,254.29,97,268.66,98.94z"/>
<path class="st1" d="M128.62,304.72c-1.95-0.26-3.87-0.35-5.74-0.28c-15.08,0.6-29.63-5.76-40.3-16.46l-0.43-0.43
	c-9.24-9.25-14.7-21.46-16.17-34.45c-0.02-0.17-0.03-0.31-0.07-0.48c-1.32-9.9-9.14-18.03-19.01-19.6
	c-15.65-2.5-28.96,10.84-26.47,26.52c1.57,9.87,9.69,17.71,19.57,19.04c0.17,0.02,0.31,0.03,0.48,0.07
	c12.98,1.47,25.16,6.95,34.39,16.21l0.43,0.43c10.68,10.69,17.02,25.26,16.42,40.38c-0.07,1.89,0.02,3.81,0.28,5.76
	c1.94,14.39,13.56,25.96,27.95,27.76c21.21,2.67,39.04-15.2,36.37-36.44C154.51,318.3,142.97,306.66,128.62,304.72z"/>
<circle class="st4" cx="346.59" cy="252.97" r="28.99"/>
<path class="st5" d="M284.21,295.09c-8-8.64-18.67-13.19-29.49-13.69c-20.68-0.93-40.35-9.11-54.98-23.76l-3.86-3.86
	c-6.89-6.89-12.14-14.92-15.84-23.71l23.11,65.86c0.86,1.97,1.61,3.96,2.3,5.98c0.96,2.55,1.71,5.41,2.33,8.29
	c0,0.03,0.02,0.07,0,0.08c0.96,4.22,1.61,8.54,1.87,12.93c0.08,0.99,0.13,1.97,0.2,2.86c0,0.4,0.03,0.79,0.08,1.19
	c0.03,0.36,0.07,0.73,0.07,1.06c0.89,9.6,5.03,18.96,12.4,26.32c17.23,17.23,45.48,16.75,62.12-1.47
	C299.33,336.87,299.21,311.25,284.21,295.09z"/>
<path class="st3" d="M161.02,171.86c-17.23-17.23-45.49-16.74-62.12,1.47c-14.83,16.31-14.72,41.94,0.3,58.08
	c8,8.64,18.67,13.19,29.49,13.69c20.68,0.93,40.33,9.14,54.96,23.77l3.84,3.84c6.74,6.74,11.97,14.64,15.66,23.21l-23.11-65.86
	c-3.94-9.27-6.06-19.35-6.49-29.65C173.12,190.06,168.95,179.81,161.02,171.86z"/>
<ellipse class="st4" cx="47.85" cy="135.66" rx="29.2" ry="29.25"/>
</svg>
