<svg xmlns="http://www.w3.org/2000/svg" xmlns:xlink="http://www.w3.org/1999/xlink" version="1.1" id="Layer_1" x="0px" y="0px" viewBox="0 0 1600 1200" style="enable-background:new 0 0 1600 1200;" xml:space="preserve" width="1600px" height="1200px">
<style type="text/css">.st0 { fill: rgb(113, 177, 172); }
.st1 { fill: rgb(246, 109, 132); }
</style>
<g>
	<path class="st0" d="M1043.26,567.87l-31.65-118.11c-8.03-29.96-31.43-53.36-61.39-61.39L832.1,356.72   c-29.96-8.03-61.93,0.54-83.86,22.47l-86.47,86.47c-21.93,21.93-30.5,53.9-22.47,83.86l31.65,118.11c0.04,0.14,0.1,0.27,0.14,0.41   c8.69-3.46,16.74-8.63,23.55-15.44l2.46-2.46c19.13-19.13,26.66-47.25,19.66-73.38l-7.69-28.7c-4.45-16.59,0.34-34.42,12.5-46.56   l62.83-62.67c12.14-12.11,29.97-16.87,46.53-12.41l85.71,23.08c8.13,2.19,15.58,6.5,21.53,12.45c5.99,5.99,10.3,13.47,12.48,21.65   l22.87,85.77c4.42,16.57-0.38,34.39-12.51,46.5l-62.85,62.69c-12.14,12.11-29.97,16.87-46.53,12.41l-28.39-7.65   c-26.16-7.05-54.32,0.48-73.48,19.64l-2.19,2.19C740.7,712,735.49,720.13,732,728.9c0.12,0.03,0.23,0.09,0.35,0.12l118.11,31.65   c29.96,8.03,61.93-0.54,83.86-22.47l86.47-86.47C1042.72,629.8,1051.29,597.83,1043.26,567.87z"/>
	<path class="st1" d="M954.81,574.36l-22.87-85.77c-2.65-9.94-10.4-17.71-20.33-20.39l-85.71-23.08   c-9.93-2.68-20.54,0.15-27.82,7.42l-62.83,62.67c-7.29,7.27-10.15,17.89-7.48,27.84l7.69,28.7c8.81,32.9-0.59,68-24.67,92.08   l-2.46,2.46c-22.6,22.6-55.54,31.4-86.4,23.09h0c-6.83-1.84-14.12,0.1-19.13,5.1l-43.2,43.09c-5.01,5-6.97,12.3-5.14,19.14   l15.81,59.01c1.83,6.82,7.15,12.16,13.97,13.99l58.83,15.84c6.83,1.84,14.12-0.1,19.13-5.1l43.21-43.1   c5.01-4.99,6.97-12.28,5.15-19.12v0c-8.27-31.02,0.61-64.1,23.32-86.8l2.19-2.19c24.11-24.11,59.27-33.51,92.2-24.64l28.39,7.65   c9.93,2.68,20.54-0.15,27.83-7.42l62.84-62.69C954.61,594.9,957.46,584.3,954.81,574.36z"/>
</g>
</svg>